<?xml version="1.0" encoding="UTF-8"?><svg id="Layer_1" xmlns="http://www.w3.org/2000/svg" viewBox="0 0 1024 1024"><defs><style>.cls-1{fill:#c72028;}</style></defs><path class="cls-1" d="M662.02,615.84c19.62-5.39,38.26-14.19,57.91-19.56,26.08-7.13,62.32-17.1,77.45,12.8,13.61,26.9,22.02,63.44,35.18,92.55,11.94,26.41,36.05,58.77,44.85,82.87,6.26,17.16-2.74,25.41-20.22,23.62-24.1-2.46-65.2-21.99-92.67-28.23-75.77-17.21-157.82-11.8-216.61,43.73,13.45-4.64,24.98-13.34,38.02-19.01,61.47-26.72,125.39-24.2,189.2-8.09,29.1,7.35,57.96,21.71,86.08,28.03,15.03,3.38,45.34,9.28,47.86-13.65,1.83-16.64-29.37-73.33-38.4-91.19-12.28-24.3-27.21-47.55-38.12-72.58-.76-1.74-8.37-16.61-2.82-14.22,1.94.83,25.73,25.22,29,28.91,24.1,27.21,46.76,63.96,64.13,95.95,18.56,34.18,53.54,87.7-2.04,107.54-39.26,14.02-125.75-17.96-169.95-25.82-60.38-10.73-126.54-12.42-182.04,17.84-15.73,8.58-30.15,25.14-49.22,27.41-27.84,3.31-37.78-12.21-59.13-23.94-63.81-35.07-126.16-32.46-195.64-19.64-42.53,7.85-126.7,38.67-164.31,23.66-17-6.78-26.71-20.11-26.17-38.69,1.03-35.81,72.38-142.59,98.83-170.3,2.86-3,21.17-20.42,23.06-21.23,2.09-.89,3.15.32,2.51,2.51-1.07,3.6-6.63,13.96-8.73,18.53-18.81,40.98-44.73,80.19-62.53,121.4-8.06,18.66-22.49,48.51,9.91,50.92,23.6,1.75,80.72-23.6,107.36-30.72,83.04-22.17,149.91-16.36,225.41,24.94,3.32,1.82,8.51,3.98,11.19,5.86,1.84,1.29.95,4.59,3.52,4.11.32-3.66-3.54-6.36-5.98-8.47-72.87-62.76-165.25-60.92-252.47-34.55-16.9,5.11-56.51,23.85-71.48,17.89-10.44-4.15-8.08-17.41-4.7-25.95,7.96-20.09,27.8-46.18,38.07-67.52,14.78-30.71,23.53-63.62,36.88-94.25,13.16-30.19,26.74-33.94,59.08-28.48,26.86,4.54,54.05,16.12,79.68,25.04l-15.95-25.76c-79.05-177.49,142.79-326.56,287.56-202.41,64.82,55.59,83.72,160.51,26.44,228.15ZM421.89,420c.6,2.97,3.4,13.75,3.39,14.5-.06,3.09-4.15,4.21-3.38,7.63,6.68-1.17,13.03,2.98,11.48,9.92-.06.27-3.76,3.76-4.04,3.79-4.18.45-5.31-3.92-9.14-3.48,2.38,12.67-5.89,9.86-10.82,13.48-2,1.47-1.1,6.09-4.5,7.82-2.73,1.39-7.49-.04-9.44,2.48-1.14,1.48-.98,5.7-2.13,8.08-1.96,4.02-11.21,14.5-.34,11.58l-1.79,7.6c-4.65-2.92-3.31-1.11-3.36,3.44-5.94-1.85-.99-10.94-5.92-13.13-8.56.04-23.97,9.95-17.67,19.71,2.29,3.56,22.63.18,18.48,12.14-2.8.27-1.9-3.75-4.26-5.09-3.24-1.85-1.41,3.67-4.89,3.45-7.84-.51-9.59-6.65-10.53-6.92-2.21-.65-7.2,3.29-7.48,4.7-3.48,17.43.23,33.34,5.9,49.85,9.44,27.47,29.9,52.73,54.51,68.1-2.24-8.73-7.75-15.81-8.93-25.09-.99-7.81,1.22-12.16,1.09-18.13-.25-11.28-16.96-22.83-19.93-34.68-1.93-7.69,4.14-10.63,4.26-16.29.13-6.45-4.66-6.2-5.93-9.13s-1.26-8.95-2.07-12.45c5.93-1.23,2.16,9.09,7.68,10.2,3.78.76,2.52-4.89,6.78-5.29,7.83-.73,22.22,6.56,26.2,13.15,2.63,4.36-.31,9.01,2.55,10.98,4.29,2.96,30.26,4.79,29.3,13.65-.44,4.08-5.7,9.08-6.07,14.55s4.45,10.21-2.55,14.42c-2.2,1.33-4.75-.27-5.99.62-3.75,2.71-2.47,12.12-4.31,16.23-.99,2.23-5.01,4.37-6.69,6.93-2.66,4.04-7.05,22.3-5.88,26.03.66,2.11,31.06,20.57,36.41,25.04,9.59,8.03,23.25,22.81,30.59,32.43,7.69,10.08,13.57,21.65,20.56,32.2,13.52-22.55,28.56-44.7,48.51-62.15,37.3-32.63,76.62-38.96,101.33-89.41,1.49-3.05,8.87-21.34,9.02-23.26.35-4.58-6.34-13.78-6.24-14.59.41-3.45,3.03-7.74,3.23-11.5,3.56-.4.78,5.93,1.69,6.81.18.18,4.91.15,5.09-.02,1.36-1.31-1.93-19.72-8.49-10.21,1.5-7.8-8.14-10.68-11.09-18.7l-10.14,8.56-5.15,16.93c-11.01-4.15-9.27-20.54-15.33-27.25-.94-1.04-9.93-7.49-11.07-7.82-7.54-2.19-4.25.29-13.13-4.08-16.14-7.94-11.28.46-9.03,11.94,5.51,1.02,10.91-7.12,12.01.87,1.45,10.48-13.17,20.34-22.83,17.93-1.67-.42-11.88-27.58-18.12-29.03-.15,7.09,5.34,12.11,8.14,18.23,1.73,3.79,1.81,10.07,3.63,12.99,3.23,5.19,16.64-.71,15.21,8.44-1,6.43-12.65,12.25-15.23,19.05-2.96,7.78,5.03,14.14,3.24,21.73-1.16,4.92-6.59,6.82-8.21,9.4-2.57,4.08-3.71,10.17-6.09,13.9-4.78,7.48-17.13,15.14-26.15,15.41-.93-9.02-9.1-20.03-10.23-28.15-1.02-7.34,2.34-13.42,1.71-20.32-.18-1.96-4.47-19.41-5.07-20.26-1.03-1.46-3.85-.71-4.64-1.52-1.86-1.9-3.69-7.16-6.54-7.44-5.55-.55-13.36,7.78-21.98,2.65-.67-.4-10.65-10.42-11.07-11.07-5.54-8.56-3.08-24.64,3.2-32.2,2.49-2.99,16.76-14.85,19.97-15.8,3.76-1.1,15.27-.84,18.87.76,2.98,1.33,2.27,6.44,6.23,9.17,9.31,6.43,16.89-.89,25.88-1.71,3.93-.36,9.77,4,9.12-.92-.57-4.36-8.24-10.5-11.86-11.82-2.42-.88-8.66,2.1-10.19.58-.5-.5.5-3.83-.31-4.63-.72-.71-4.91-.22-7.57-1.87-4.38-2.71-3.36-10.01-8.42-10.5-7.19-.69-24.39,23.2-31.59,18.13-6.57-4.63,2.61-10.93,4.21-13.02,1.19-1.56.77-4.59,1.08-4.9,1.02-1.03,11.08,4.54,13.53-2.64l-15.03-6.2c-1.44-4.85-.55-20.75,7.36-18.46,2.91.84,2.25,10.22,6.84,11.91.45.17,1.63-6.05,7.66-3.41-4.2-7.38,1.76-7.02,1.79-7.67.1-2.43-2.78-4.74-3.22-7.17-1.18-6.58,4.17-6.62,5.36-9.38,1.03-2.37.56-6.4,1.51-7.76,3.05-4.37,13.23,4.76,11.73-12.14,3.11-2.76,19.98,3.98,21.86,6.83.3.45-4.42,6.62,2.76,6,3.16-.27,5.19-4.32,8.44-4.42,3-.09,5.72,3.42,8.42,3.46,1.63.02,8.04-12.04,8.78-12.16,6.67-1.09,7.91,7.6,14.29,6.95-.44-6.59-1.2-6.62,5.13-7.67l-5.11-4.25,8.45,1.67c1.15-4.43,3.13-9.12.92-13.61-4.45-9.03-47.7-22.77-58.45-25-41.02-8.51-69.12-5.63-106.08,12.07-6.69,3.2-15.13,5.8-21.97,9.56l6.8,6.78c-10.6-1.2-11.15-.08-11.92,10.22,22.2,2.75,16.62,11.59,3.41,22.15-2.55-12.71-3.44-5.97-8.49-11.07-3.71-3.74-3.26-14.21-10.21-.97,13.35-.93,8.27,23.04,5.09,20.54-2.85-18.84-16.83-10.76-20.12,2.9-1.89,7.84,1.59,4.52,3.32,5.79,1.81,1.32,1.35,4.04,3.81,3.11,4.8-1.8,9.79-8.34,12.45-9.69,1.89-.96,8.59-1.55,9.03-2.2s-1.69-3.7-.9-5.1c.97-1.72,4.58-2.19,6.01-3.33ZM537.69,414.88l-5.09.02c-2.42,4.96,4.61,4.77,3.37,7.6-1.08,2.46-17.72,20.65-9.13,22.94,5.71,1.52,8.03-7.01,14.29-5.83,4.82-5.22-3.17-.54-3.41-.88-2.35-3.39,11.25-9.74,11.89-12.8,1.47-6.99-10.8-1.37-11.9-2.52l-.02-8.53ZM588.66,457.58c-.86-.66-15.43,7.27-20.24,7.69-3.6.31-25.48-5.93-22.2,4.97.96,3.17,7.02,1,6.79,4.25l-10.2,3.41c5.53.76,19.37-4.16,23.49-1.23.93.66-.58,4.69,3.75,2.94l-.9-5.18c4.56-.7,7.18-8.57,10.21-8.58,10.44-.04,5.82,3.74,6.75,6.98,1.68,5.85,8.7,9.28,14.6,8.48-7.36-5.84-12.07-5.99-8.5-17l1.7,3.4c9.45-6.97-2.41-5.14-3.43-5.9-1.39-1.03-1.37-3.87-1.83-4.22ZM832.32,772.53c-8.81-23.89-21.06-47.05-30.25-71.07-6.08-15.9-22.62-76.53-31.87-83.94-11.17-8.95-33.72-2.16-46.89.88-54.39,12.55-126.2,46.26-162.65,89.4-22.95,27.17-34.16,61.36-47.67,93.65-12.34-28.64-21.61-58.6-40.31-83.98-36.58-49.63-111.93-86.73-171.37-99.42-15-3.2-41-10.36-50.07,5.13-12,20.48-22.43,66.77-32.42,91.91-7.6,19.14-17.33,37.53-25.17,56.58,30.95-9.23,61.05-22.11,93.33-27.59,77.19-13.11,158.11,10.19,210.71,69.3,2.81,3.16,12.46,18.77,13.62,18.78,4.06.02,10.51-11.96,13.59-15.37,63.68-70.49,144.44-90.16,236.28-67.64,24.06,5.9,47.77,15.27,71.13,23.37ZM547.91,825.35c-2.39-1.22-4.54,1.08-3.39,1.67,2.39,1.22,4.54-1.08,3.39-1.67Z"/><path class="cls-1" d="M346.96,242.88c2.96.73,3.41-1.21,5.12-2.54,47.28-36.51,91.93-80.9,138.83-118.34,4-3.19,14.79-12.68,18.36-14.14,8.19-3.35,27.5,15.41,34.35,20.95,146.45,118.5,287.54,244.34,432.5,364.53,13.94,23.17-5.39,45.25-30.25,45.2-22.21-.04-35.4-15.01-52.21-26.58l-2.56,158.38c-9.61-10.82-19.27-21.56-29.79-31.52s-40.51-31.44-44.39-42.47c-1.1-3.13-1.38-5.28-1.69-8.53-2.99-31.77,4.25-71.65.16-102.34-.25-1.87-.25-3.66-1.7-5.11-67.93-56.94-135.38-114.49-203.65-171.03-32.52-26.94-65.14-54.27-98.49-79.91l-297.54,250.94c-3.37,4.05.11,8.75.19,13.64.47,26.94,2.03,60.69-.02,86.99-.38,4.86-1.82,14.1-3.84,18.3-3.83,7.93-29.02,25.17-37.12,32.71-11.4,10.61-24.02,26.83-35.73,35.8-1.72,1.31-2.15,3.28-5.12,2.54v-158.38c-20.8,16.9-50.01,38.41-76.53,19.48-21.56-15.4-12.21-33.01,3.27-47.6,44.49-41.93,100.3-81.28,147.29-121.79,10.93-9.42,21.85-19.06,32.37-28.94l2.66-39.92c2.53-30.67-3.61-67.25-.11-97.18.92-7.87,4.91-11.85,12.77-12.77,15.88-1.86,64.58-2.09,80.17-.05,5.24.69,12.68,8.09,12.68,12.86v46.83Z"/><path class="cls-1" d="M479.47,365.99c.25.09.4,2.23,1.64,2.77,3.55,1.53,10.45,2.46,12.07,6.4,2.76,6.71-4.16,6.03-4.66,8.32-.36,1.62,1.89,4.54,1.19,7.98-.78,3.86-4.77,5.4-6.37,7.77-1.14,1.69-.82,5.4-2.62,7.23-2.46,2.5-8.63,1.14-12.86,4.21-.87.63-8.42,6.95-9.21,7.71-3.33,3.15-2.86,8.26-6.07,10.14.19-6.63-9.5-2.68-10.36-9.4l6.47-23.81c-5.2-2.33-8.69-19.03-6.34-21.26.31-.3,6.01.19,8.59-.76,2.31-.84,4.43-3.73,6.18-4.04,2.83-.5,5.79,3.88,9.59,2.9,3.58-.93,4.19-6.04,4.8-6.37.35-.19,7.6.09,7.98.23Z"/><path class="cls-1" d="M585.04,598.44c-1.18.66-5.67.78-6.46.36-1.11-.58,3.9-22.18,10.95-20.36,7.53,1.94-1.17,18.14-4.48,20Z"/><path class="cls-1" d="M527.93,386.47c-.88.43.47,4.44-3.84,2.89l-.02-5.13c-14.8,8.54-1.84-4.99,5.21-7.59,8.1-2.99,10.93,3.33,5.9,7.63-2.37,2.02-4.94,1.08-7.23,2.2Z"/><path class="cls-1" d="M588.79,389.31c-5.57-.37-8.66,15.47-15.33,10.24-3.6-2.82,7.77-22.66,15.33-10.24Z"/><path class="cls-1" d="M397.75,510.55c3.44,2.08.06,10.27-3.94,11.62-5-3.37.79-3.91.89-7.65.04-1.39-5.32.27-3.46-4.26,1.98.22,4.94-.67,6.51.28Z"/></svg>